<svg width="738" height="618" viewBox="0 0 738 618" fill="none" xmlns="http://www.w3.org/2000/svg">
<g clip-path="url(#clip0_20_112)">
<path d="M737.76 51.1586V100.719L737.747 112.009C737.747 139.819 714.841 162.364 686.572 162.376H607.742C438.467 162.376 407.101 239.165 363.469 309.124C363.409 309.218 363.348 309.313 363.288 309.408C363.288 309.408 363.288 309.42 363.276 309.432C362.915 310.227 351.058 336.116 315.209 369.417C280.627 399.954 229.692 421.396 140.258 421.396H62.6096C28.4966 421.396 0.830322 394.179 0.830322 360.593V257.12C0.830322 223.535 28.4966 196.317 62.6217 196.305H140.258C229.379 196.305 280.265 217.806 314.86 248.475C400.944 158.237 385.99 0.780029 607.766 0.780029H686.56C714.841 0.780029 737.76 23.3365 737.76 51.1586Z" fill="white"/>
<path d="M315.209 369.417C351.058 336.115 362.915 310.226 363.276 309.432C363.288 309.42 363.288 309.408 363.288 309.408C363.348 309.313 363.409 309.218 363.469 309.124C407.101 379.082 438.467 455.871 607.742 455.871H686.572C714.841 455.883 737.747 478.428 737.747 506.25V555.787L737.76 567.1C737.76 594.922 714.841 617.467 686.56 617.467H607.766C385.99 617.467 400.944 460.022 314.86 369.784" fill="url(#paint0_linear_20_112)"/>
</g>
<defs>
<linearGradient id="paint0_linear_20_112" x1="314.513" y1="372.884" x2="1171.2" y2="844.769" gradientUnits="userSpaceOnUse">
<stop stop-color="#474747"/>
<stop offset="0.120324" stop-color="#E4E4E4"/>
<stop offset="1" stop-color="#070707"/>
</linearGradient>
<clipPath id="clip0_20_112">
<rect width="736.929" height="616.687" fill="white" transform="translate(0.830322 0.780029)"/>
</clipPath>
</defs>
</svg>
