<svg
    width="35"
    height="30"
    viewBox="0 0 35 30"
    fill="none"
    xmlns="http://www.w3.org/2000/svg"
>
    <path
        d="M35 2.45077V4.86173L34.9994 5.41096C34.9994 6.76385 33.9115 7.86058 32.5689 7.86115H28.8249C20.7853 7.86115 19.2956 11.5967 17.2233 15C17.2204 15.0046 17.2176 15.0092 17.2147 15.0138C17.2147 15.0138 17.2147 15.0144 17.2141 15.015C17.197 15.0537 16.6338 16.3131 14.9312 17.9331C13.2887 19.4187 10.8696 20.4617 6.62205 20.4617H2.93417C1.314 20.4617 0 19.1377 0 17.5038V12.4702C0 10.8363 1.314 9.51231 2.93474 9.51173H6.62205C10.8548 9.51173 13.2716 10.5577 14.9146 12.0496C19.0031 7.65981 18.2929 0 28.8261 0H32.5683C33.9115 0 35 1.09731 35 2.45077Z"
        fill="#121212"
    />
    <path
        d="M14.9311 17.9331C16.6337 16.3131 17.1969 15.0537 17.214 15.015C17.2146 15.0144 17.2146 15.0138 17.2146 15.0138C17.2175 15.0092 17.2203 15.0046 17.2232 15C19.2955 18.4033 20.7852 22.1388 28.8248 22.1388H32.5688C33.9114 22.1394 34.9993 23.2362 34.9993 24.5896V26.9994L34.9999 27.5498C34.9999 28.9033 33.9114 30 32.5682 30H28.826C18.2928 30 19.003 22.3408 14.9146 17.951"
        fill="url(#paint0_linear_146_1320)"
    />
    <defs>
        <linearGradient
            id="paint0_linear_146_1320"
            x1="2.67718"
            y1="9.79026"
            x2="35.3859"
            y2="28.641"
            gradientUnits="userSpaceOnUse"
        >
            <stop stopColor="white" />
            <stop offset="0.554212" stopColor="#6C6C6C" />
            <stop offset="1" stopColor="#121212" />
        </linearGradient>
    </defs>
</svg>